<svg width="777" height="113" viewBox="0 0 777 113" fill="none" xmlns="http://www.w3.org/2000/svg">
<path d="M145.222 80L162.123 30.4491H177.871L195.248 80H185.338L170.608 37.0332L174.07 38.5265H165.585L169.115 37.0332L154.86 80H145.222ZM157.033 66.8317L160.087 58.6863H180.179L183.166 66.8317H157.033ZM216.604 81.2218C214.025 81.2218 211.649 80.7467 209.477 79.7964C207.305 78.8461 205.427 77.5111 203.843 75.7916C202.259 74.072 201.037 72.0809 200.178 69.8183C199.318 67.5104 198.888 65.0216 198.888 62.3517V60.9263C198.888 58.3017 199.295 55.8354 200.11 53.5276C200.969 51.2197 202.146 49.206 203.639 47.4864C205.178 45.7669 207.011 44.4319 209.137 43.4816C211.31 42.4861 213.708 41.9883 216.332 41.9883C219.229 41.9883 221.763 42.6218 223.935 43.8889C226.152 45.1107 227.917 46.966 229.229 49.4549C230.542 51.9438 231.266 55.0661 231.401 58.8221L228.618 55.5639V30.4491H238.053V80H230.587V64.3202H232.216C232.08 68.0761 231.311 71.2211 229.908 73.7552C228.505 76.2441 226.65 78.122 224.342 79.3891C222.079 80.6109 219.5 81.2218 216.604 81.2218ZM218.708 73.2801C220.564 73.2801 222.261 72.8728 223.799 72.0583C225.338 71.1985 226.559 69.9767 227.464 68.3929C228.415 66.7638 228.89 64.8632 228.89 62.6911V59.976C228.89 57.8039 228.415 55.9938 227.464 54.5457C226.514 53.0524 225.27 51.9211 223.731 51.1518C222.193 50.3373 220.518 49.93 218.708 49.93C216.672 49.93 214.862 50.4278 213.278 51.4234C211.739 52.3737 210.518 53.7312 209.613 55.496C208.753 57.2609 208.323 59.3198 208.323 61.6729C208.323 64.026 208.775 66.085 209.68 67.8498C210.585 69.5694 211.807 70.9043 213.346 71.8546C214.93 72.8049 216.717 73.2801 218.708 73.2801ZM256.192 80L244.652 43.1422H254.359L265.423 80H256.192ZM258.975 80V72.2619H268.953V80H258.975ZM262.708 80L272.211 43.1422H281.307L271.329 80H262.708ZM310.301 80V69.0716H308.739V56.9215C308.739 54.7946 308.219 53.2108 307.178 52.17C306.137 51.1292 304.531 50.6088 302.359 50.6088C301.228 50.6088 299.87 50.6315 298.286 50.6767C296.702 50.722 295.096 50.7898 293.467 50.8803C291.883 50.9256 290.458 50.9935 289.191 51.084V43.0744C290.231 42.9839 291.408 42.8934 292.72 42.8029C294.032 42.7124 295.367 42.6671 296.725 42.6671C298.128 42.6218 299.44 42.5992 300.662 42.5992C304.463 42.5992 307.608 43.097 310.097 44.0925C312.631 45.0881 314.532 46.6493 315.799 48.7761C317.111 50.903 317.767 53.686 317.767 57.1251V80H310.301ZM298.422 80.9503C295.752 80.9503 293.399 80.4751 291.363 79.5249C289.372 78.5746 287.81 77.217 286.679 75.4522C285.593 73.6873 285.05 71.5605 285.05 69.0716C285.05 66.3565 285.706 64.1392 287.018 62.4196C288.376 60.7 290.254 59.4103 292.652 58.5506C295.096 57.6908 297.947 57.2609 301.205 57.2609H309.758V62.8947H301.069C298.897 62.8947 297.223 63.4378 296.046 64.5238C294.915 65.5646 294.349 66.9222 294.349 68.5965C294.349 70.2708 294.915 71.6284 296.046 72.6692C297.223 73.71 298.897 74.2304 301.069 74.2304C302.381 74.2304 303.581 74.0041 304.667 73.5516C305.798 73.0538 306.726 72.2393 307.45 71.108C308.219 69.9314 308.649 68.3476 308.739 66.3565L311.047 69.0038C310.821 71.5831 310.187 73.7552 309.147 75.5201C308.151 77.2849 306.748 78.6424 304.938 79.5927C303.173 80.4978 301.001 80.9503 298.422 80.9503ZM327.874 80V43.1422H335.34V58.9578H334.661C334.661 55.2019 335.159 52.0795 336.155 49.5907C337.15 47.0565 338.621 45.156 340.567 43.8889C342.558 42.6218 345.024 41.9883 347.965 41.9883H348.373C352.762 41.9883 356.088 43.4138 358.351 46.2646C360.613 49.0703 361.745 53.2787 361.745 58.8899V80H352.31V58.0754C352.31 55.8128 351.653 53.9801 350.341 52.5773C349.074 51.1745 347.309 50.4731 345.047 50.4731C342.739 50.4731 340.861 51.1971 339.413 52.6452C338.01 54.048 337.309 55.9486 337.309 58.3469V80H327.874ZM388.247 81.2897C385.034 81.2897 382.251 80.7467 379.898 79.6606C377.59 78.5746 375.644 77.1265 374.06 75.3164C372.522 73.5063 371.368 71.47 370.598 69.2074C369.829 66.9448 369.445 64.6369 369.445 62.2838V60.9942C369.445 58.5053 369.829 56.1296 370.598 53.867C371.413 51.5591 372.612 49.5228 374.196 47.7579C375.78 45.9479 377.726 44.5224 380.034 43.4816C382.387 42.3956 385.102 41.8526 388.179 41.8526C391.392 41.8526 394.265 42.4861 396.799 43.7531C399.334 44.975 401.347 46.6945 402.841 48.9119C404.379 51.1292 405.239 53.7086 405.42 56.65H396.256C396.03 54.7494 395.216 53.1656 393.813 51.8985C392.455 50.6315 390.577 49.9979 388.179 49.9979C386.097 49.9979 384.355 50.4957 382.952 51.4912C381.595 52.4868 380.577 53.867 379.898 55.6318C379.219 57.3514 378.88 59.3425 378.88 61.6051C378.88 63.7772 379.196 65.7456 379.83 67.5104C380.509 69.2753 381.527 70.6555 382.884 71.651C384.287 72.6465 386.075 73.1443 388.247 73.1443C389.876 73.1443 391.279 72.8502 392.455 72.2619C393.632 71.6736 394.559 70.8591 395.238 69.8183C395.962 68.7775 396.415 67.601 396.596 66.2886H405.759C405.578 69.2753 404.696 71.8999 403.112 74.1625C401.573 76.3798 399.515 78.122 396.935 79.3891C394.401 80.6562 391.505 81.2897 388.247 81.2897ZM429.812 81.2897C426.644 81.2897 423.861 80.7467 421.463 79.6606C419.11 78.5746 417.141 77.1265 415.558 75.3164C414.019 73.4611 412.842 71.4021 412.028 69.1395C411.259 66.8769 410.874 64.5691 410.874 62.216V60.9263C410.874 58.4827 411.259 56.1296 412.028 53.867C412.842 51.5591 414.019 49.5228 415.558 47.7579C417.141 45.9479 419.087 44.5224 421.395 43.4816C423.703 42.3956 426.373 41.8526 429.405 41.8526C433.387 41.8526 436.713 42.735 439.383 44.4998C442.098 46.2194 444.134 48.5046 445.492 51.3555C446.849 54.1611 447.528 57.193 447.528 60.4511V63.845H414.879V58.0754H441.623L438.704 60.9263C438.704 58.5732 438.365 56.5595 437.686 54.8851C437.007 53.2108 435.966 51.9211 434.563 51.0161C433.206 50.1111 431.486 49.6585 429.405 49.6585C427.323 49.6585 425.558 50.1337 424.11 51.084C422.662 52.0343 421.553 53.4144 420.784 55.2245C420.06 56.9894 419.698 59.1162 419.698 61.6051C419.698 63.9129 420.06 65.9719 420.784 67.782C421.508 69.5468 422.617 70.9496 424.11 71.9904C425.604 72.9859 427.504 73.4837 429.812 73.4837C432.12 73.4837 433.998 73.0312 435.446 72.1262C436.894 71.1759 437.822 70.0219 438.229 68.6644H446.917C446.374 71.1985 445.333 73.4158 443.795 75.3164C442.256 77.217 440.288 78.6877 437.889 79.7285C435.536 80.7693 432.844 81.2897 429.812 81.2897ZM470.682 81.2218C468.103 81.2218 465.727 80.7467 463.555 79.7964C461.383 78.8461 459.505 77.5111 457.921 75.7916C456.338 74.072 455.116 72.0809 454.256 69.8183C453.396 67.5104 452.966 65.0216 452.966 62.3517V60.9263C452.966 58.3017 453.374 55.8354 454.188 53.5276C455.048 51.2197 456.224 49.206 457.718 47.4864C459.256 45.7669 461.089 44.4319 463.216 43.4816C465.388 42.4861 467.786 41.9883 470.411 41.9883C473.307 41.9883 475.841 42.6218 478.013 43.8889C480.231 45.1107 481.995 46.966 483.308 49.4549C484.62 51.9438 485.344 55.0661 485.48 58.8221L482.697 55.5639V30.4491H492.132V80H484.665V64.3202H486.294C486.159 68.0761 485.389 71.2211 483.987 73.7552C482.584 76.2441 480.728 78.122 478.421 79.3891C476.158 80.6109 473.579 81.2218 470.682 81.2218ZM472.787 73.2801C474.642 73.2801 476.339 72.8728 477.878 72.0583C479.416 71.1985 480.638 69.9767 481.543 68.3929C482.493 66.7638 482.968 64.8632 482.968 62.6911V59.976C482.968 57.8039 482.493 55.9938 481.543 54.5457C480.593 53.0524 479.348 51.9211 477.81 51.1518C476.271 50.3373 474.597 49.93 472.787 49.93C470.75 49.93 468.94 50.4278 467.356 51.4234C465.818 52.3737 464.596 53.7312 463.691 55.496C462.831 57.2609 462.401 59.3198 462.401 61.6729C462.401 64.026 462.854 66.085 463.759 67.8498C464.664 69.5694 465.886 70.9043 467.424 71.8546C469.008 72.8049 470.796 73.2801 472.787 73.2801ZM550.374 80L532.25 56.8536H525.259L546.776 30.4491H557.84L538.427 54.2064L538.156 49.4549L562.117 80H550.374ZM518.268 80V30.4491H527.906V80H518.268ZM589.038 80V69.0716H587.477V56.9215C587.477 54.7946 586.956 53.2108 585.915 52.17C584.875 51.1292 583.268 50.6088 581.096 50.6088C579.965 50.6088 578.607 50.6315 577.023 50.6767C575.44 50.722 573.833 50.7898 572.204 50.8803C570.62 50.9256 569.195 50.9935 567.928 51.084V43.0744C568.969 42.9839 570.145 42.8934 571.457 42.8029C572.77 42.7124 574.105 42.6671 575.462 42.6671C576.865 42.6218 578.177 42.5992 579.399 42.5992C583.2 42.5992 586.345 43.097 588.834 44.0925C591.368 45.0881 593.269 46.6493 594.536 48.7761C595.848 50.903 596.504 53.686 596.504 57.1251V80H589.038ZM577.159 80.9503C574.489 80.9503 572.136 80.4751 570.1 79.5249C568.109 78.5746 566.548 77.217 565.416 75.4522C564.33 73.6873 563.787 71.5605 563.787 69.0716C563.787 66.3565 564.443 64.1392 565.756 62.4196C567.113 60.7 568.991 59.4103 571.39 58.5506C573.833 57.6908 576.684 57.2609 579.942 57.2609H588.495V62.8947H579.806C577.634 62.8947 575.96 63.4378 574.783 64.5238C573.652 65.5646 573.087 66.9222 573.087 68.5965C573.087 70.2708 573.652 71.6284 574.783 72.6692C575.96 73.71 577.634 74.2304 579.806 74.2304C581.119 74.2304 582.318 74.0041 583.404 73.5516C584.535 73.0538 585.463 72.2393 586.187 71.108C586.956 69.9314 587.386 68.3476 587.477 66.3565L589.785 69.0038C589.558 71.5831 588.925 73.7552 587.884 75.5201C586.888 77.2849 585.486 78.6424 583.675 79.5927C581.911 80.4978 579.739 80.9503 577.159 80.9503ZM606.611 80V43.1422H614.077V58.9578H613.399C613.399 55.2019 613.896 52.0795 614.892 49.5907C615.887 47.0565 617.358 45.156 619.304 43.8889C621.295 42.6218 623.761 41.9883 626.703 41.9883H627.11C631.499 41.9883 634.825 43.4138 637.088 46.2646C639.351 49.0703 640.482 53.2787 640.482 58.8899V80H631.047V58.0754C631.047 55.8128 630.391 53.9801 629.078 52.5773C627.811 51.1745 626.047 50.4731 623.784 50.4731C621.476 50.4731 619.598 51.1971 618.15 52.6452C616.747 54.048 616.046 55.9486 616.046 58.3469V80H606.611ZM672.279 81.2218C669.247 81.2218 666.577 80.5883 664.269 79.3212C661.961 78.0089 660.151 76.1083 658.839 73.6195C657.526 71.1306 656.802 68.1213 656.667 64.5917H658.092V80H650.625V30.4491H660.061V55.2245L657.549 59.0936C657.73 55.2924 658.477 52.1248 659.789 49.5907C661.147 47.0565 662.957 45.156 665.219 43.8889C667.482 42.6218 670.039 41.9883 672.889 41.9883C675.424 41.9883 677.731 42.4635 679.813 43.4138C681.895 44.364 683.682 45.699 685.175 47.4186C686.669 49.0929 687.8 51.0613 688.569 53.3239C689.384 55.5865 689.791 58.0528 689.791 60.7226V62.1481C689.791 64.818 689.384 67.3068 688.569 69.6147C687.755 71.9225 686.578 73.9589 685.04 75.7237C683.501 77.4433 681.646 78.8008 679.474 79.7964C677.347 80.7467 674.948 81.2218 672.279 81.2218ZM670.174 73.2801C672.211 73.2801 673.976 72.7823 675.469 71.7868C677.007 70.746 678.207 69.3432 679.066 67.5783C679.926 65.8135 680.356 63.7772 680.356 61.4693C680.356 59.1162 679.926 57.0799 679.066 55.3603C678.207 53.6407 677.007 52.3058 675.469 51.3555C673.976 50.4052 672.211 49.93 670.174 49.93C668.319 49.93 666.599 50.3373 665.016 51.1518C663.477 51.9664 662.21 53.1656 661.214 54.7494C660.264 56.3332 659.789 58.2338 659.789 60.4511V63.1663C659.789 65.2931 660.287 67.1032 661.282 68.5965C662.278 70.0898 663.568 71.2437 665.151 72.0583C666.735 72.8728 668.41 73.2801 670.174 73.2801ZM720.419 80V69.0716H718.858V56.9215C718.858 54.7946 718.337 53.2108 717.297 52.17C716.256 51.1292 714.649 50.6088 712.477 50.6088C711.346 50.6088 709.988 50.6315 708.404 50.6767C706.821 50.722 705.214 50.7898 703.585 50.8803C702.001 50.9256 700.576 50.9935 699.309 51.084V43.0744C700.35 42.9839 701.526 42.8934 702.838 42.8029C704.151 42.7124 705.486 42.6671 706.843 42.6671C708.246 42.6218 709.558 42.5992 710.78 42.5992C714.581 42.5992 717.726 43.097 720.215 44.0925C722.749 45.0881 724.65 46.6493 725.917 48.7761C727.229 50.903 727.885 53.686 727.885 57.1251V80H720.419ZM708.54 80.9503C705.87 80.9503 703.517 80.4751 701.481 79.5249C699.49 78.5746 697.929 77.217 696.797 75.4522C695.711 73.6873 695.168 71.5605 695.168 69.0716C695.168 66.3565 695.824 64.1392 697.137 62.4196C698.494 60.7 700.372 59.4103 702.771 58.5506C705.214 57.6908 708.065 57.2609 711.323 57.2609H719.876V62.8947H711.187C709.015 62.8947 707.341 63.4378 706.165 64.5238C705.033 65.5646 704.468 66.9222 704.468 68.5965C704.468 70.2708 705.033 71.6284 706.165 72.6692C707.341 73.71 709.015 74.2304 711.187 74.2304C712.5 74.2304 713.699 74.0041 714.785 73.5516C715.916 73.0538 716.844 72.2393 717.568 71.108C718.337 69.9314 718.767 68.3476 718.858 66.3565L721.166 69.0038C720.939 71.5831 720.306 73.7552 719.265 75.5201C718.269 77.2849 716.867 78.6424 715.057 79.5927C713.292 80.4978 711.12 80.9503 708.54 80.9503ZM737.992 80V43.1422H745.458V58.9578H744.78C744.78 55.2019 745.277 52.0795 746.273 49.5907C747.269 47.0565 748.739 45.156 750.685 43.8889C752.676 42.6218 755.142 41.9883 758.084 41.9883H758.491C762.88 41.9883 766.207 43.4138 768.469 46.2646C770.732 49.0703 771.863 53.2787 771.863 58.8899V80H762.428V58.0754C762.428 55.8128 761.772 53.9801 760.459 52.5773C759.192 51.1745 757.428 50.4731 755.165 50.4731C752.857 50.4731 750.979 51.1971 749.531 52.6452C748.128 54.048 747.427 55.9486 747.427 58.3469V80H737.992Z" fill="black"/>
<rect width="113" height="113" rx="14" fill="#5672cd"/>
<rect x="18" y="22" width="20.5526" height="70.0658" rx="4.67105" fill="white"/>
<rect x="46.7763" y="22" width="21" height="44" rx="4.67105" fill="white"/>
<rect x="76.1974" y="22" width="20" height="52" rx="4.67105" fill="white"/>
<rect x="47" y="80" width="49" height="12" rx="4.67105" fill="white"/>
</svg>
